<svg width="508" height="508" viewBox="0 0 508 508" fill="none" xmlns="http://www.w3.org/2000/svg">
<g id="map-pin-svgrepo-com 1">
<path id="back" d="M254 508C394.28 508 508 394.28 508 254C508 113.72 394.28 0 254 0C113.72 0 0 113.72 0 254C0 394.28 113.72 508 254 508Z" fill="#2AC1BC" fill-opacity="0.1"/>
<g id="map">
<path id="Vector" d="M148.281 378.2L183.117 195.639L118.736 178L57 339.395L148.281 378.2Z" fill="white"/>
<path id="Vector_2" d="M148.281 378.2L183.117 195.639L254.113 178V339.395L148.281 378.2Z" fill="#E6E9EE"/>
<path id="Vector_3" d="M359.946 378.2L325.109 195.639L254.113 178V339.395L359.946 378.2Z" fill="white"/>
<path id="Vector_4" d="M359.946 378.2L325.109 195.639L389.491 178L451.227 339.395L359.946 378.2Z" fill="#E6E9EE"/>
</g>
<g id="marker">
<path id="Vector_5" d="M258.835 124.553C258.835 155.67 202.282 233.6 202.282 233.6C202.282 233.6 146 155.941 146 124.553C146 93.1647 171.165 68 202.553 68C233.67 68.2706 258.835 93.4353 258.835 124.553Z" fill="#2AC1BC"/>
<path id="Vector_6" d="M202.282 158.647C221.411 158.647 236.917 143.14 236.917 124.012C236.917 104.883 221.411 89.3765 202.282 89.3765C183.154 89.3765 167.647 104.883 167.647 124.012C167.647 143.14 183.154 158.647 202.282 158.647Z" fill="white"/>
<path id="Vector_7" d="M202.282 141.33C211.847 141.33 219.6 133.576 219.6 124.012C219.6 114.448 211.847 106.694 202.282 106.694C192.718 106.694 184.965 114.448 184.965 124.012C184.965 133.576 192.718 141.33 202.282 141.33Z" fill="#2AC1BC"/>
</g>
</g>
</svg>
